<svg width="68" height="59" viewBox="0 0 68 59" fill="none" xmlns="http://www.w3.org/2000/svg">
<path d="M0.199998 58.2V48C3.4 47.4667 6 46.1333 8 44C10 41.8667 11.5333 39.2 12.6 36C13.5333 32.8 14 29.3333 14 25.6H1.6V2.14577e-06H27V23.4C27 31.2667 25.7333 37.5333 23.2 42.2C20.6667 47 17.4 50.6667 13.4 53.2C9.26666 55.7333 4.86666 57.4 0.199998 58.2ZM40.6 58.2V48C43.8 47.4667 46.4 46.1333 48.4 44C50.4 41.8667 51.9333 39.2 53 36C53.9333 32.8 54.4 29.3333 54.4 25.6H42V2.14577e-06H67.4V23.4C67.4 31.2667 66.1333 37.5333 63.6 42.2C61.0667 47 57.8 50.6667 53.8 53.2C49.6667 55.7333 45.2667 57.4 40.6 58.2Z" fill="white"/>
</svg>
