<svg width="781" height="673" viewBox="0 0 781 673" fill="none" xmlns="http://www.w3.org/2000/svg">
<path d="M112 121.8C114.9 122.2 115.8 121.4 117.1 120.8C114.6 119.5 112.5 120 112 121.8Z" fill="#FFF29C"/>
<path d="M715.4 524C715.2 524.7 714.8 525.5 714.5 526.3C714.9 525.6 715.4 524.8 715.4 524Z" fill="#FFF29C"/>
<path d="M259.6 242.9L263.5 245.7C262.7 247.2 262.1 248.3 261.5 249.2C260.8 250.1 260.3 250.7 259.8 251.1C258.8 251.9 258 252 257.3 252.1C256.6 252.2 255.9 252.2 255 253C254.6 253.4 254.1 253.9 253.6 254.7C253.3 255.1 253.1 255.6 252.7 256.1C252.4 256.6 252 257.3 251.6 258C252.3 260 251.9 262.1 250.7 264.3C250.1 265.4 249.4 266.5 248.5 267.6C247.6 268.7 246.7 269.8 245.7 270.8C241.7 275 237.1 278.8 236.8 281.9C236.5 281.5 231.4 286.8 230.1 285C230.7 287.1 229.5 288.6 227.9 290.2C226.2 291.7 224.1 293.2 222.7 295.3C222.1 297.3 224.4 295.2 226.1 295C226.1 295 225.7 295.6 225 296.4C224.3 297.2 223.4 298.3 222.5 299.4C221.6 300.5 220.7 301.6 220 302.4C219.3 303.2 218.8 303.8 218.8 303.8C214.7 306 212.5 305.2 215.7 301.5C215 302.1 214.2 302.8 213.3 303.5C212.4 304.3 211.4 305.1 210.4 305.9C208.3 307.7 205.9 309.6 203.3 311.7C198.1 315.9 191.7 320.8 184.7 325.8C182.9 327.1 181.1 328.3 179.3 329.5C177.4 330.7 175.6 332 173.6 333.2C169.8 335.7 165.8 338 161.7 340.3C153.6 344.8 145.2 348.8 137.1 351.9C133 353.5 129.1 354.7 125.2 355.8C123.3 356.4 121.4 356.8 119.5 357.2C118.6 357.4 117.7 357.6 116.8 357.8C115.9 358 115 358.1 114.1 358.3C110.6 358.9 107.3 359.3 104.2 359.4L103 359.5C102.6 359.5 102.2 359.5 101.9 359.5C101.1 359.5 100.4 359.5 99.7 359.6C98.3 359.5 96.8 359.6 95.5 359.5C92.8 359.4 90.3 359.1 87.9 358.8C87.7 358.8 87.6 358.8 87.6 358.8H87.4H87.3C87.3 358.9 87.3 358.7 87.3 358.9L87.1 360L86.7 362.3C86.4 363.8 86.1 365.3 85.8 366.8C85.6 368 85.3 369.2 85.1 370.5C84.9 371.6 84.7 372.7 84.4 373.8C84 375.7 83.6 377.6 83.2 379.5C82.3 383.2 81.8 385.6 81.1 388.3C79.9 393 78.8 396.4 77.8 399.2C76.8 401.8 76 403.8 75.2 405.3C75 405.6 74.9 406 74.7 406.3C74.5 406.6 74.4 406.9 74.2 407.2C74.1 407.4 73.9 407.7 73.7 407.9C73.6 408.1 73.5 408.3 73.3 408.5L73 408.9L72.8 409.1L72.7 409.2C73.4 408.8 71.1 410 74.3 408.4H74.2H74.1C73.8 408.4 73.5 408.3 73.3 408.3L72.9 408.2H72.7H72.6C72.7 408.5 72.7 408.8 72.7 409.1C72.7 409.1 72.6 409.2 72.5 409.3L72.7 409.2C73.1 409 74.1 408.5 75.3 408.2C75.6 408.1 76 408 76.3 407.9C76.6 407.8 77.1 407.7 77.4 407.6C78.1 407.5 79 407.3 79.7 407.2C78.1 407.4 76.1 407.8 74.7 408.3C73.3 408.8 72.5 409.3 72.5 409.3H72.6L72.7 409.2C72.7 409.2 72.7 409.2 72.7 409.1V408.9C72.7 408.7 72.7 408.6 72.6 408.4V408.3V408.2H72.7L73.1 408.3C73.4 408.3 73.7 408.4 73.9 408.4H74.1H74.2H74.3C74.7 408.2 71.2 409.9 72.7 409.2L72.9 409C73 408.9 73.1 408.8 73.2 408.6C74.1 407.4 75.3 405.3 76.1 403.4C75.1 405.6 74.3 406.9 73.7 407.9C73.6 408.1 73.4 408.3 73.3 408.5C73.2 408.7 73.1 408.8 73 408.9L72.8 409.1C73.5 408.7 71.2 409.9 74.4 408.3H74.3H74.1C73.8 408.3 73.5 408.2 73.3 408.2L72.9 408.1H72.8V408.2V408.3C72.8 408.4 72.9 408.6 72.9 408.7V408.9V409L72.8 409.1L72.7 409.2C72.7 409.2 72.7 409.2 72.8 409.2C73.2 408.9 75.2 408 77.6 407.6C78.7 407.4 81 407 85 406.9C86 406.9 87 406.9 88.3 407C88.9 407 89.5 407.1 90.1 407.1C90.7 407.1 91.4 407.2 92.1 407.3C94.8 407.6 97.7 408.1 100.7 408.7C103.7 409.3 106.8 410.2 109.6 411C112.5 411.9 115 412.8 117.2 413.6C117.7 413.8 118.2 414 118.7 414.2C119.2 414.4 119.6 414.6 120 414.8C120.8 415.1 121.5 415.5 122.2 415.8C122.6 416 123 416.2 123.4 416.3C123.8 416.5 124.1 416.6 124.4 416.8C124.4 416.8 123.6 416.4 122.8 415.9C122 415.4 121.2 415 121.2 415C121.2 415 121.3 415.1 121.5 415.1C121.6 415.1 121.7 415.2 121.8 415.3L122 415.4C122 415.5 122.2 415.3 122.3 415.3C123.2 414.9 124.1 414.6 124.1 414.6C125.5 411.4 126.7 409.1 127.6 407.2C128.6 405.4 129.3 404 129.9 403C131.1 401.1 131.4 400.5 131.8 400.1C132.2 399.7 132.6 399.4 134 398.3C134.7 397.8 135.6 396.9 136.8 395.8C138.1 394.8 139.6 393.2 141.7 391.6C146.1 387.3 148.7 383.9 151 381.1C151.6 380.5 152.2 379.9 152.7 379.3C153 379 153.3 378.7 153.6 378.5C153.9 378.3 154.2 378.1 154.5 377.9C155.1 377.5 155.7 377.2 156.3 376.9C156.6 376.7 156.9 376.7 157.3 376.6C157.6 376.5 158 376.5 158.3 376.5C157.9 376.6 157 376.4 156.5 375.8C155.9 375.3 155.7 374.5 156.7 373.6C157.1 374.3 157.7 374.4 158.3 374.1C158.6 374 158.9 373.7 159.3 373.5C159.6 373.3 160 373 160.4 372.8C161.9 371.6 163.5 370.8 164.4 372.2C164.7 372.1 165 371.9 165.4 371.8C165.8 371.7 166.2 371.6 166.7 371.5C167.2 371.4 167.6 371.2 168.1 371C168.6 370.9 169.1 370.8 169.5 370.6C169.9 370.4 170.3 370.2 170.7 370C171.1 369.8 171.4 369.5 171.5 369.2C171.9 368.6 171.9 367.8 171.1 366.7C171.9 367.7 174.1 368.5 175.7 369.3C177.3 370.1 178 370.8 175.6 371.7C178.1 371.9 180.8 372.9 183.1 372.2C183.1 372.2 182.9 372.1 182.5 371.9C182.2 371.7 181.7 371.5 181.3 371.3C180.8 371.1 180.4 370.9 180 370.7C179.7 370.6 179.5 370.5 179.5 370.5C180.1 370.5 180.7 370.6 181.3 370.6C181.9 370.7 182.5 370.7 183 370.8C184.2 371 185.3 371.3 186.3 371.5C187.4 371.8 188.4 372.1 189.4 372.4C190.4 372.8 191.4 373.1 192.4 373.4C196.3 374.7 200 375.7 204.9 375.3C204.9 375.3 203.8 374.4 202.8 373.6C201.7 372.8 200.7 372 200.7 372C208.4 374.2 215.6 376.8 217.1 382.3C217.1 382.3 216.5 382.1 215.7 381.9C214.8 381.7 213.7 381.4 212.6 381.1C210.4 380.5 208.3 380.1 208.3 380.1C211.6 381.3 214.6 382.6 217.5 383.7C220.5 384.9 223.3 386 226 387.1C231.4 389.3 236.7 391.1 242.9 393.2L238.9 390.9C243 391.9 251.1 395 260.7 399.8C270.4 404.6 281.6 411.2 292.4 418.5C303.1 425.8 313.8 434 322.6 441.1C324.8 442.9 326.9 444.6 328.9 446.2C330.9 447.8 332.7 449.3 334.4 450.6C337.8 453.3 340.6 455.2 342.5 456.3L339.6 448.3C339.6 448.3 342.6 450.5 345.7 452.7C348.7 454.9 351.8 457.2 351.8 457.2C350.6 455.9 338.9 459.4 338.7 457.6C341.4 460.4 345.5 464.8 350.6 470.4C355.8 476 362 483 368.9 490.9C376 499 383.8 508 391.9 517.3C400.2 526.8 409.1 536.9 418.3 547C427.5 557.1 437.2 567.1 446.8 576.6C456.5 586.1 466.2 594.9 475.4 602.7C484.6 610.5 493.2 617.2 500.6 622.6C504.2 625.3 507.7 627.7 510.5 629.7C513.4 631.8 515.9 633.4 517.8 634.8C519.3 636 520.4 637 521.1 637.8C521.9 638.6 522.4 639.2 522.7 639.7C523.2 640.7 522.8 641.2 522 641.4C520.3 641.8 517.1 641 516.9 641.2C518.9 642.3 520.7 643.1 522.1 643.7C523.5 644.3 524.6 644.7 525.5 645C527.3 645.6 528.3 645.7 529.2 645.8C531 646 532.4 646.1 539.3 649.9C541.1 651.1 540.6 651.6 539.3 651.7C538.1 651.8 536.1 651.5 534.9 651.1C538 652.6 541 654.2 543.3 655.4C545.6 656.6 547.2 657.2 547.8 656.6C540.5 651.7 545.6 649.5 543.6 645.5C543.6 645.5 548 647.8 552.5 650C557.1 652.1 561.6 654.2 561.6 654.2L559.8 656.3C561.9 657.2 565.3 656.6 570.3 656.8C572.8 656.9 575.8 657.1 579.3 657.8C581 658.1 582.9 658.6 584.9 659.2C586.9 659.7 589.1 660.4 591.5 661.3C607.5 666.6 625.3 669.9 643.7 670.8C652.8 671.3 662.2 671 671.4 670.4C680.9 669.7 690.2 668.2 699.1 666.2C698.9 667.9 691.6 670.6 683.9 672.7C688.9 672 696.3 670.2 701.1 670.2C696.4 669.8 700.1 668.6 704 667.2C707.9 665.9 712.1 664.6 708.6 665C720.6 658.2 734.5 652.4 747.6 645.1C754.1 641.5 760.5 637.5 766.1 633.2C771.7 628.9 776.6 624.2 780.2 619.2C779.9 618.5 779.2 616.2 778.1 612.9C777 609.6 775.4 605.2 773.5 600.2C769.5 590.2 763.5 577.9 756.1 566.9C752.4 561.3 748.4 556.1 744.3 551.4C740.3 546.7 736.1 542.6 732.4 539.2C724.8 532.4 718.8 528.4 717.3 527.5C717.6 527 717.8 526.6 718.1 526.1C718.3 525.7 718.6 525.2 718.8 524.9C719.2 524.2 719.6 523.6 720 523.4C719.6 523.4 719.1 523.6 718.6 523.9C718.2 524.2 717.7 524.7 717.3 525.3C716.9 525.9 716.5 526.5 716.2 527.1C715.9 527.7 715.7 528.4 715.6 529L718.6 531.3C718.2 532.7 717.7 533.4 717.3 533.7C716.9 534 716.6 534 716.2 533.9C715.8 533.8 715.4 533.7 714.9 534C714.6 534.1 714.4 534.3 714.1 534.6C713.8 534.9 713.4 535.3 713 535.9C712.4 535.5 712.1 534.9 712 534.2C711.9 533.5 712.1 532.7 712.4 531.8C713 530.1 713.9 528.1 714.7 526.4C713.7 527.8 712.2 529 711.2 530.2C710.1 531.4 709.5 532.6 710.3 534.3C708.6 535.3 707.9 534.6 707.3 534C706.6 533.4 705.9 532.8 703.9 533.9C703.2 535.3 702.4 537.3 701.2 539.2C700 541 698.3 542.6 696 543.1L695.8 542.6C693.2 543.4 691.2 544.4 689.4 545.6C688.5 546.2 687.6 546.8 686.8 547.5C685.9 548.1 685.1 548.9 684.3 549.5C682.6 550.9 680.9 552.1 678.9 553C676.9 553.9 674.6 554.4 671.9 554.2L672.7 552.9C670.8 552.5 668.3 553.1 665.4 553.6C664 553.9 662.6 554.1 660.7 554.1C659.8 554.1 658.9 554.1 658.1 554C657.2 554 656.3 553.7 655.4 553.5C657.4 554.1 659.3 556.4 654.9 556.7C653.8 556.4 652.9 556.3 651.9 556.1C650.9 555.9 650 555.8 649.1 555.6C647.3 555.5 645.5 555.2 643.9 555C643.1 554.9 642.3 554.8 641.4 554.7C640.6 554.5 639.8 554.3 639 554.1C638.2 553.9 637.4 553.6 636.7 553.4C635.9 553.1 635.2 552.7 634.4 552.2C634.4 552.2 632.7 552.6 631 553C629.2 553.3 627.4 553.6 627.4 553.6C623.4 552.6 617.9 550.9 611.1 548.4C604.4 545.9 596.4 542.4 587.8 537.7C585.7 536.5 583.4 535.4 581.2 534C580.1 533.3 579 532.7 577.8 532C576.7 531.3 575.6 530.6 574.4 529.8C573.3 529.1 572.1 528.4 571 527.6C569.8 526.8 568.7 526 567.5 525.2C566.3 524.4 565.1 523.5 563.9 522.7C562.7 521.8 561.5 521 560.3 520.1C550.7 512.9 540.8 504.5 531 495.3C511.3 476.8 491.9 455 474.6 435.4C465.9 425.6 457.8 416.3 450.7 408.3C443.5 400.3 437.4 393.5 432.8 388.6L434.6 389.8C427.6 382.3 419.5 373.8 410.2 364.5C400.9 355.3 390.3 345.4 378.5 335.3C354.7 315.1 326.1 295.6 295.5 280.1C287.9 276.2 280.1 272.5 272.2 269.1C264.3 265.7 256.1 262.4 247.5 259.4C230.3 253.5 211.5 248.8 191.6 247.2C181.7 246.4 171.6 246.4 161.5 247.3C159 247.5 156.5 247.9 154 248.2C152.8 248.3 151.5 248.6 150.3 248.8C149.1 249 147.8 249.2 146.6 249.5C144.2 250 141.7 250.4 139.4 251C137.1 251.6 134.8 252.2 132.5 252.8C114.3 257.9 99.2 265.6 87.1 273.4C78.8 276.8 69.6 282.3 61.6 288.7L58.5 291.1C57.5 291.9 56.6 292.8 55.6 293.6C53.7 295.3 51.8 296.9 49.9 298.6C48.1 300.3 46.4 302 44.7 303.6C43.8 304.4 43 305.2 42.2 306C41.4 306.8 40.6 307.6 39.8 308.4C43.5 305.2 45.3 304.7 45.4 305.6C45.4 306 45.1 306.8 44.4 307.8C43.7 308.8 42.7 310.1 41.4 311.4C32.5 321 28.7 326.5 26.7 329.4C24.7 332.3 24.7 332.9 24.7 333.5C24.7 334.1 24.8 334.7 23 337.9C22.2 339.5 20.8 341.7 19 344.9C18.1 346.5 17 348.4 15.8 350.5C15.4 351.2 15 351.9 14.6 352.7C14.2 353.5 13.7 354.3 13.3 355.2C12.4 356.9 11.5 358.7 10.6 360.7C8.6 365.3 6.3 370.8 4.2 377.9C3.2 381.5 2.2 385.4 1.4 390C0.600002 394.6 0 399.8 0 406C0 409.1 0.199998 412.5 0.599998 416.1C1.1 419.8 1.7 423.6 2.9 427.8C4 431.9 5.6 436.3 7.8 440.7C9.9 445.1 12.6 449.5 15.8 453.6C16.6 454.6 17.4 455.6 18.3 456.6L18.9 457.3L19.2 457.7L19.6 458.2C20.2 458.8 20.8 459.5 21.4 460.1C22 460.7 22.6 461.3 23.3 461.9L24.3 462.8L24.7 463.2L25.5 463.9L25.7 464.1L27.4 465.5L27.6 465.7L28 466L29.6 467.2C30.7 468 31.7 468.7 32.8 469.5C33.9 470.2 34.9 470.9 36 471.5C37.1 472.2 38.1 472.7 39.1 473.3C47.5 477.8 55 480 60.9 481.3C63.9 482 66.5 482.4 68.8 482.8C70 483 70.9 483.1 72 483.2C73 483.3 74.1 483.5 75.1 483.6C76.1 483.7 77.2 483.9 78.2 484C79.2 484.1 80.3 484.2 81.4 484.3C83.5 484.5 85.6 484.7 87.8 484.8C96.4 485.3 105.2 485.2 114 484.7C131.7 483.6 149.4 480 165.9 475C182.4 469.9 197.9 463.4 211.8 456.3C218.8 452.8 225.4 449.1 231.7 445.4C234.9 443.6 237.8 441.7 240.8 439.9C243.7 438 246.6 436.2 249.3 434.4C260.3 427.1 269.8 420.1 277.6 414.1C285.4 408.1 291.7 402.9 296 399.4C303.5 389.7 313.2 380 322.7 369.7C332.3 359.4 341.6 348.2 348.1 336.9L347.4 339.6C348.3 338.1 349.6 336.2 351.1 334C352.6 331.8 354.4 329.1 356.3 326.1C358.3 323.1 360.3 319.7 362.6 315.9C363.8 314.1 364.8 312 366 310C367.1 307.9 368.4 305.8 369.5 303.6C370.7 301.3 371.8 299 373 296.6C374.1 294.2 375.3 291.7 376.5 289.1C376.8 288.5 377.1 287.8 377.4 287.2C377.7 286.5 377.9 285.9 378.2 285.2C378.7 283.9 379.3 282.5 379.9 281.2C380.4 279.8 381 278.5 381.6 277.1C382.1 275.6 382.6 274.2 383.2 272.7C387.4 260.9 390.6 248.1 392.6 235.1C394.5 222 395.2 208.5 394.4 195.4C393.6 182.3 391.6 169.5 388.3 157.8C388 156.4 387.5 154.9 387 153.5C386.5 152.1 386.1 150.7 385.6 149.3C385.1 147.9 384.7 146.6 384.2 145.3C383.7 144 383.1 142.7 382.6 141.4C381.6 138.9 380.5 136.4 379.5 134.1C378.4 131.8 377.2 129.6 376.1 127.5C374 123.3 371.6 119.6 369.6 116.4C368.6 114.8 367.7 113.3 366.7 112C365.7 110.7 364.8 109.5 364 108.5C364 108.5 364.7 109.7 365.4 111C365.7 111.6 366.1 112.2 366.3 112.7C366.6 113.2 366.7 113.5 366.7 113.5C363.8 110 361.4 107 359.2 104.3C357.1 101.8 355.2 99.6 353.6 97.7C352 95.8 350.7 94.2 349.5 92.7C348.3 91.2 347.3 89.8 346.4 88.6C345.5 87.3 344.6 86 343.6 84.7C342.7 83.4 341.6 82.1 340.5 80.6C339.3 79.2 338 77.6 336.4 75.9C334.8 74.2 332.9 72.3 330.6 70.4C330.5 71.8 329 72 326.7 71.5C324.5 71 321.5 69.7 318.3 68.3C312 65.4 305.1 61.8 301.6 59.8L302.4 59.1C301 58.3 299.5 57.5 297.7 56.6C296 55.7 294.1 54.8 292.1 53.9C288.1 52 283.6 49.9 278.8 47.8C269.3 43.4 259.1 38.5 250.8 33.7L252.8 31.8C249.2 30.4 245 28.3 240.6 25.9C236.1 23.5 231.9 21 226.3 17.8C224.9 17 223.4 16.2 222 15.4C220 14.3 218.2 13.4 216.4 12.5C212.7 10.7 209.1 9 205.6 7.7C198.7 4.9 192.3 3.3 187.5 2.4C186.5 2.2 185.8 2.1 185.2 2C180 1 174.4 0.299998 168.4 0.0999985C165.4 -1.52737e-06 162.3 0 159.2 0C157.6 0.1 156 0.100001 154.4 0.200001C153.6 0.300001 152.8 0.300002 152 0.400002C151.2 0.500002 150.4 0.499998 149.6 0.599998C144.4 0.999998 139.7 1.5 135.5 2C131.3 2.4 126.7 3 121.8 3.7C112 5.1 100.7 7.3 88.6 11.5C87.1 12 85.6 12.6 84.1 13.2C82.6 13.8 81.1 14.4 79.5 15.1C78 15.8 76.5 16.5 74.9 17.2L72.6 18.3L70.2 19.6C63.9 23 58 27 52.5 31.6C52.5 31.6 52 31.9 51 32.3C50.1 32.7 48.7 33.4 47.1 34.3C46.3 34.7 45.4 35.2 44.5 35.7C43.6 36.2 42.6 36.8 41.6 37.4C39.6 38.6 37.6 39.9 35.5 41.3C33.5 42.7 31.5 44.2 29.6 45.6C27.8 47.1 26.1 48.4 24.7 49.7C23.3 51 22.1 52 21.3 52.8C20.5 53.6 20.1 54 20.1 54C20.1 54 19.4 55.3 18.8 56.6C18.1 57.9 17.6 59.3 17.6 59.3C17.6 59.3 18.3 60.9 19.6 63.6C20.9 66.3 23.1 70 26.1 74C29 78 32.9 82.4 37.3 86.6C41.8 90.8 47 94.7 52.6 98.1C55.3 99.7 58.2 101.3 61 102.8C63.8 104.2 66.6 105.6 69.5 106.7C72.4 107.9 75.2 108.9 78.1 109.7C78.8 109.9 79.5 110.1 80.3 110.3C81 110.5 81.7 110.7 82.4 110.9C83.8 111.3 85.1 111.7 86.5 112C91.8 113.4 96.8 114.6 101.1 115.6C105.4 116.6 109 117.6 111.7 118.1L113.6 120C113.6 120 113.7 119.9 113.7 119.7C113.8 119.6 113.9 119.4 114 119.2C114.3 118.8 114.5 118.4 114.5 118.5C116.6 118.4 116.6 114.9 117.7 117.3C117.7 117.3 117.5 117.4 117.2 117.6C117 117.7 116.9 117.8 116.7 117.9C116.6 117.9 116.5 118 116.4 118L116.1 118.2C115.7 118.4 115.5 118.6 115.2 118.7C115 118.8 114.9 118.9 114.9 118.9C115.3 118.8 115.8 118.8 116 118.9C116.3 119 116.4 119.3 116.6 119.6C116.7 119.9 116.8 120.3 116.9 120.7C117 121.1 117.2 121.4 117.3 121.8C117.7 121.7 118.5 121.5 119.6 121.8C119.4 120.7 118.8 121.1 118.2 120.8C118.4 120.1 118.6 118.9 119.2 118C119.6 117.1 121 116.1 122.7 116.1C123.9 115.7 124.7 115.8 125.2 116C125.7 116.3 126 116.8 126.2 117.2C126.5 117.7 126.8 118.2 127.4 118.4C127.7 118.5 128.1 118.6 128.7 118.6C129.3 118.6 129.9 118.5 130.9 118.3C137.2 116.9 146.2 115.7 156.9 114.3C159.4 114 161.5 113.7 163.2 113.6L163.8 113.5H164.1H164.2C164.2 113.5 164.3 113.5 164.3 113.6C164.4 113.6 164.6 113.7 164.7 113.7C165.2 113.8 165.7 114 166.1 114.3C166.5 114.6 166.9 114.9 167.3 115.3C167.4 115.4 167.5 115.5 167.5 115.6H167.4L167.9 115.9L169 116.6L174.9 120.4C184.2 126.6 193.6 132.7 203 138.8C207.7 141.8 212.4 144.9 217.2 147.9C221.9 150.9 226.7 153.9 231.4 156.9C240.6 162.8 248.2 167.9 253.6 172.2C253.6 172.9 253.4 173.1 253 173.1C252.7 173.1 252.2 172.8 251.5 172.6C256.8 176.1 259.9 179 261.8 181.1C263.6 183.1 265.2 185.5 267 188.5C266.9 189.5 266.3 190.4 265.8 191.1C265.3 191.8 264.7 192.2 264.3 192.6C264.4 192.5 264.6 192.5 264.8 192.7C264.9 192.8 265 192.9 265.1 193C265.2 193.2 265.3 193.4 265.4 193.6C265.6 194.1 265.9 194.7 266.2 195.4C266.3 195.6 266.4 195.8 266.4 195.9C266.5 196.1 266.5 196.3 266.6 196.5C266.7 196.9 266.8 197.4 267 197.9C267.3 198.8 267.5 200 267.7 201.3C268 202.5 268 203.9 268.2 205.4C268.3 206.1 268.3 206.9 268.3 207.7C268.3 208.5 268.4 209.3 268.4 210.1C268.4 210.9 268.3 211.8 268.3 212.6C268.3 213.4 268.3 214.3 268.2 215.1C267.7 222 266 229.1 264.1 234.1C263.9 234.7 263.6 235.4 263.3 236.1C263 236.7 262.8 237.4 262.5 237.9C262.1 239.1 261.5 240.1 261.1 240.9C260.3 241.8 259.8 242.8 259.6 242.9Z" fill="#FFF29C"/>
<path d="M73.9 226.8C76.5 228.9 79.1 228.1 81.6 227.6C78.8 225.8 76.4 225.5 73.9 226.8Z" fill="#FFF29C"/>
<path d="M542 390C541.9 389.2 541.9 388.3 541.8 387.3C541.8 388.2 541.8 389.1 542 390Z" fill="#FFF29C"/>
<path d="M202.9 209.3L203 204.5C209 204.1 205 209.9 210.5 208.4C211.5 204.9 213.8 205.2 216.1 205.7C218.4 206.3 220.6 207.2 221.6 205.4C221.6 205.9 224.3 206.1 224.1 208.2C225 204.5 226.9 207.3 228.6 206.4C229.2 205.4 228.2 205.3 227.7 204.2L231.7 203.1C233.2 204.3 233.5 206.5 231.8 206.9C236.9 207.7 251.7 209.4 266.2 212.2C268 212.5 269.9 212.8 271.7 213.1C273.5 213.4 275.3 213.8 277 214.2C280.5 214.9 283.8 215.6 286.9 216.1C293 217.4 297.9 218.4 300.7 218.5C299.9 215.5 296.2 216.6 295.9 212.1C299.3 210.3 299.9 213.8 301.7 211.6C301.6 213.2 301.9 214.2 302.5 214.9C303 215.6 303.8 215.9 304.6 216.4C306.2 217.2 307.9 218.1 308.1 221.6L309.8 218.2L310.6 220.7C317.2 220.4 318.1 220.1 318.5 220.4C318.9 220.7 319.2 221.4 324.2 223.4C327.2 224 329.7 223.3 331.7 222.9C332.7 222.7 333.7 222.5 334.5 222.5C335.3 222.5 336 222.8 336.5 223.5C336.1 223.3 335.7 220.8 337.4 220.4C336.5 223.5 341.8 219.6 341.1 222.9C342.5 223 346.1 225.1 346.6 220.5C346.5 221.7 347.2 222.8 347.5 223.8C347.8 224.8 347.8 225.6 346.5 226C347.5 226.6 348.2 227.7 349.3 227.2L348.6 225.4C350.5 226 351.4 227.3 352.3 228.1C353.2 228.9 354.1 229.4 356.2 228.3L356 226.1C357 226.6 357.9 227 358.4 227.7C358.9 228.6 358.8 229.8 357.9 231.8C357.9 231.8 357.3 231.8 356.6 231.7C356.3 231.7 356 231.7 355.7 231.7C355.5 231.7 355.3 231.7 355.3 231.7C356.7 232.6 357.9 233.4 359.2 233.8C360.5 234.4 361.9 234.6 363.8 234.6L363 233.8C364.5 233.5 366.7 234.1 369.4 235.1C370.7 235.7 372.2 236.4 373.7 237.1C375.2 237.9 376.7 238.8 378.3 239.7C379.8 240.7 381.4 241.7 383 242.6C384.5 243.6 386 244.6 387.4 245.4C388.8 246.3 390.1 247.1 391.3 247.6C392.5 248.2 393.6 248.5 394.4 248.6C394.4 248.6 394.8 247.7 395.2 246.8C395.6 245.9 396 245 396 245C396 245 396.3 245.1 396.7 245.3C397.1 245.5 397.8 245.7 398.3 245.9C399.5 246.4 400.6 246.9 400.6 246.9C400.3 246.4 390.3 251.3 391.1 250.4C391.7 251.3 392.6 252.6 393.8 254.2C394.4 255 395 256 395.7 257C396.4 258 397.1 259.1 397.8 260.3C400.7 265 403.9 271 406.7 277.2C408.1 280.3 409.3 283.5 410.4 286.6C410.9 288.2 411.5 289.8 412 291.3C412.5 292.8 412.9 294.3 413.3 295.7C413.7 297.1 414 298.5 414.3 299.8C414.6 301.1 414.8 302.3 415 303.3C415.4 305.5 415.5 307.2 415.5 308.4C414.4 312.2 410.4 310.1 409.8 310.2C411.9 314.1 413.7 311.3 414.1 314.9C413.7 316 411.4 315.2 410.9 314.7C411.6 316.2 410.7 317.8 412.3 317.7C413.2 315.5 417.4 315.6 420 314.2C420 314.2 420.2 315.4 420.3 316.6C420.4 317.8 420.5 319 420.5 319L417.8 319.2C417.9 320.3 425.5 320.7 424.7 325.8C424.7 334.1 426.5 343.1 426.5 351.8C424.9 351.8 423.9 350 422.8 348.3C422.8 349.4 423.3 351.2 422.2 352.3C424.9 350.1 424.3 355.8 425.4 354.1C427.1 355.6 428 357.3 428.6 359C429.1 360.7 429.2 362.6 429.2 364.4C429.2 366.2 429.1 368 429.3 369.7C429.5 371.4 430 373 431.1 374.4C432.6 374.5 439.6 375.2 449.4 376.3C459.2 377.4 471.8 378.9 484.5 380.5C509.8 383.7 535.2 387.3 538.6 387.3C538.5 389.4 538.3 391.5 537.7 392.1C539.3 391.6 540.1 387.4 539.2 385.3L535.5 384.9C534.2 379.8 537.7 383.7 537.4 378.8C540.4 378.5 541.2 383.1 541.4 387.1C541.8 383.5 544 379.8 540.6 378.4C541.8 375 544.3 378.8 545.6 374.6C544.6 371.6 541.6 367.8 543.3 364.3H543.8C545.2 360 544 356.8 542.7 353.7C542 352.1 541.4 350.6 541.1 349C540.8 347.4 540.7 345.6 541.4 343.6L542.5 344.4C544.1 341.5 541.3 336.2 542.8 330.9C542.3 332.4 540.2 333.8 539.6 330.8C540.3 327.8 540 325.3 539.8 323C539.6 320.7 539.5 318.6 540.4 316.3L536.9 312.5C536.3 307.3 534.9 298.4 532.3 287.3C529.7 276.3 526 263.3 521.2 250.4C516.4 237.3 510.4 224.5 504.5 213.9C503.1 211.2 501.6 208.7 500.2 206.4C499.5 205.2 498.8 204.1 498.2 203C497.5 201.9 496.9 200.9 496.2 199.8C494.9 197.8 493.7 195.9 492.7 194.3C491.6 192.7 490.6 191.2 489.8 190L490.7 190.5C489.4 188.7 488 186.7 486.6 184.7C485.1 182.7 483.5 180.6 481.8 178.3C480.2 176.1 478.3 173.8 476.4 171.5C475.4 170.3 474.5 169.2 473.5 168C472.5 166.8 471.4 165.6 470.4 164.4C461.9 154.8 451.6 144.9 439.9 136C437 133.8 434.1 131.6 431 129.6C427.9 127.6 424.9 125.5 421.7 123.7C418.5 121.9 415.4 120 412.3 118.5C409.2 116.9 406.1 115.5 403.1 114.1C391.1 108.8 380.4 105.7 372.1 103.9C368.1 99.4001 361.1 97.9001 356.4 95.7001C358.8 97.7001 357.3 99.4001 355.2 98.7001C351.5 97.5001 349.5 97.2001 348.5 97.1001C347.4 97.0001 347.2 97.3001 347 97.6001C346.5 98.2001 346 99.0001 338.4 97.7001C336.2 97.5001 333.2 96.9001 329.6 96.3001C326 95.7001 321.9 94.9001 317.5 94.0001C315.3 93.5001 312.9 93.0001 310.6 92.5001C308.2 92.1001 305.7 91.6001 303.2 91.2001C300.7 90.7001 298.1 90.2001 295.5 89.7001C292.9 89.2001 290.3 88.6001 287.7 88.3001C282.5 87.5001 277.3 86.6001 272.3 85.7001C269.8 85.2001 267.3 85.0001 265 84.6001C262.6 84.3001 260.3 83.9001 258.1 83.6001C249.3 82.2001 242.1 81.4001 238.2 80.6001C233.9 82.6001 229.1 82.6001 224.4 82.8001C219.7 82.9001 214.9 82.8001 210.8 84.2001L211.6 83.2001C210.5 83.4001 208.7 83.5001 206.5 83.7001C204.3 83.9001 201.5 84.0001 198.5 84.0001C195.4 84.1001 192 84.1001 188.5 84.2001C184.9 84.3001 181.2 84.5001 177.5 84.7001C173.7 84.9001 170 85.1001 166.4 85.3001C162.8 85.6001 159.3 86.0001 156.2 86.3001C153.1 86.6001 150.2 87.0001 147.9 87.4001C145.5 87.7001 143.7 88.2001 142.4 88.6001L143.9 89.0001C135.5 93.2001 135.9 88.3001 128.6 88.1001C129.5 90.4001 128.2 92.6001 126.3 94.3001C124.4 96.1001 122 97.4001 120.6 97.9001L120.5 96.8001C118.4 97.7001 115.2 99.7001 111.6 101.7C109.8 102.8 107.9 103.7 106.1 104.7C104.3 105.7 102.5 106.6 100.8 107.2L100.4 104.6C97.8 106.8 93.8 108.3 89.8 109.4C87.8 109.9 85.9 110.6 84.2 111C82.5 111.5 81 111.9 80 112.3C77.6 112.8 74.7 113.1 71.6 113.5C70.1 113.7 68.5 113.9 66.9 114.2C65.3 114.5 63.6 114.8 62 115.2C58.7 115.9 55.3 116.9 52 118.1C50.4 118.7 48.8 119.4 47.2 120.2C45.7 121 44.2 122 42.8 123C42.8 123 40.1 122.1 37.4 121.1C34.7 120.2 31.9 119.3 31.9 119.3L31 120.5C31 120.5 32.4 126.1 35 134.7C37.6 143.3 41.3 154.7 45.9 166.6C50.4 178.4 55.7 190.6 61.2 200.6C66.6 210.6 72.1 218.5 77.2 221.7L78 224.2L80.4 222.9C83.9 222.9 84.1 219.5 84.9 222L80.7 223.4C84 222.9 82.4 225.1 81.8 226.9C83.1 226.6 84.5 226.4 85.7 226.8C85.9 225.6 84.9 226 84.2 225.6C85.4 224.1 86.8 220.8 89.2 221.3C92.4 220.4 90.9 225.3 94.6 224.2C97.1 223.6 99.5 223 101.9 222.4L103.7 222C104.3 221.9 104.9 221.8 105.5 221.6L109.2 220.9C114.1 220 118.9 218.9 123.9 218.2C133.7 216.5 143.4 214.9 153.2 212.7C153.9 213.7 153.3 213.8 152.8 214.3C155.7 213.2 158.5 212.5 161.2 211.9C162.6 211.6 163.9 211.2 165.2 210.8C166.5 210.5 167.9 210.1 169.2 209.6C170.9 210.6 171.5 212.1 172.1 213.2C171.8 212.7 173.5 212 176.3 211.3C177.7 211 179.3 210.6 181.1 210.3C182.9 210 184.8 209.8 186.7 209.5C188.6 209.3 190.6 209 192.4 208.9C194.2 208.7 196 208.5 197.5 208.5C200.7 209.2 202.7 209.2 202.9 209.3Z" fill="#FFF29C"/>
</svg>
