<svg width="57" height="57" viewBox="0 0 57 57" fill="none" xmlns="http://www.w3.org/2000/svg">
<circle cx="28.5" cy="28.5" r="28.5" fill="#2C2C2B"/>
<path d="M22.0646 24.4829H17.1603V40.1224H22.0646V24.4829Z" fill="white"/>
<path d="M35.331 24.1436C35.1502 24.121 34.9581 24.1097 34.766 24.0984C32.0201 23.9854 30.4719 25.6126 29.9295 26.3132C29.7826 26.5053 29.7148 26.6183 29.7148 26.6183V24.5278H25.0252V40.1673H29.7148H29.9295C29.9295 38.574 29.9295 36.992 29.9295 35.3986C29.9295 34.5398 29.9295 33.681 29.9295 32.8222C29.9295 31.7599 29.8504 30.6299 30.3815 29.6581C30.8336 28.8445 31.6472 28.4377 32.5625 28.4377C35.2745 28.4377 35.331 30.8898 35.331 31.1158C35.331 31.1271 35.331 31.1384 35.331 31.1384V40.2351H40.2353V30.031C40.2353 26.5392 38.4612 24.4826 35.331 24.1436Z" fill="white"/>
<path d="M19.6124 22.46C21.1851 22.46 22.46 21.185 22.46 19.6123C22.46 18.0396 21.1851 16.7646 19.6124 16.7646C18.0396 16.7646 16.7647 18.0396 16.7647 19.6123C16.7647 21.185 18.0396 22.46 19.6124 22.46Z" fill="white"/>
</svg>
