<svg width="90" height="116" viewBox="0 0 90 116" fill="none" xmlns="http://www.w3.org/2000/svg">
<mask id="path-1-inside-1_61_368" fill="white">
<path d="M90 45.5407C90 57.4755 85.2589 68.9214 76.8198 77.3605C68.3807 85.7997 56.9347 90.5407 45 90.5407C33.0653 90.5407 21.6193 85.7997 13.1802 77.3605C4.74106 68.9214 1.8021e-06 57.4755 0 45.5407L45 45.5407H90Z"/>
</mask>
<path d="M90 45.5407C90 57.4755 85.2589 68.9214 76.8198 77.3605C68.3807 85.7997 56.9347 90.5407 45 90.5407C33.0653 90.5407 21.6193 85.7997 13.1802 77.3605C4.74106 68.9214 1.8021e-06 57.4755 0 45.5407L45 45.5407H90Z" stroke="#FDD20D" stroke-width="8" mask="url(#path-1-inside-1_61_368)"/>
<path d="M45 97.8369C58.8701 97.8369 72.1721 92.327 81.9798 82.5194C85.1017 79.3975 87.7881 75.9215 90 72.1859V115.999H0V72.1859C2.21188 75.9215 4.89832 79.3975 8.02023 82.5194C17.8279 92.327 31.1299 97.8369 45 97.8369Z" fill="#FF814C"/>
</svg>
