<svg width="120" height="50" viewBox="0 0 120 50" fill="none" xmlns="http://www.w3.org/2000/svg">
<g style="mix-blend-mode:luminosity">
<path d="M100.598 28.4185V22.2645H98.5391V20.2532H100.598V16.6608H102.802V20.2532H105.675V22.2645H102.802V28.2508C102.802 29.5681 103.352 30.1667 104.382 30.1667C104.789 30.1667 105.076 30.1187 105.388 29.975L106.154 31.8669C105.651 32.0823 105.124 32.1783 104.382 32.1783C101.915 32.1783 100.598 30.8133 100.598 28.4185ZM86.3985 26.1197C86.3985 22.7911 88.6976 19.8699 92.1459 19.8699C95.642 19.8699 97.8931 22.3362 97.8931 26.1197C97.8931 26.2874 97.8691 26.5269 97.8691 26.5269H88.6019C88.7216 29.0174 90.5175 30.3581 92.3374 30.3581C93.6303 30.3581 94.9233 29.8315 95.5463 28.3468L97.5099 29.1608C96.8155 30.837 95.0911 32.3697 92.3854 32.3697C88.7936 32.3697 86.3985 29.6637 86.3985 26.1197ZM92.0979 21.8813C90.4698 21.8813 89.1765 22.9828 88.7453 24.707H95.5463C95.4746 23.6772 94.6122 21.8813 92.0979 21.8813ZM75.5998 30.3581H75.5041V31.9862H73.3971V14.8409H75.5998V20.2528L75.5041 21.8813H75.5998C76.2705 20.8037 77.7315 19.8696 79.5991 19.8696C82.5682 19.8696 85.1785 22.5276 85.1785 26.1197C85.1785 29.7117 82.5682 32.3697 79.5991 32.3697C77.7315 32.3697 76.2705 31.4356 75.5998 30.3581ZM82.9754 26.1197C82.9754 23.4854 81.2035 21.8813 79.2399 21.8813C77.2763 21.8813 75.5041 23.4377 75.5041 26.1197C75.5041 28.8016 77.2763 30.3581 79.2399 30.3581C81.2035 30.3581 82.9754 28.7539 82.9754 26.1197ZM60.7065 28.4421C60.7065 25.7845 63.101 24.3475 65.855 24.3475C67.4354 24.3475 68.5847 24.8024 69.0399 25.0661V24.731C69.0399 22.9588 67.6269 21.8812 65.9744 21.8812C64.7534 21.8812 63.5799 22.4799 63.173 23.5814L61.1617 22.7193C61.5686 21.6418 62.9813 19.8696 65.9267 19.8696C68.8004 19.8696 71.1469 21.5941 71.1469 24.8987V31.9865H69.0399V30.3584H68.9438C68.2975 31.3399 67.1003 32.3697 65.0886 32.3697C62.6938 32.3697 60.7065 30.885 60.7065 28.4421ZM69.0399 26.9337C69.0399 26.9337 68.1061 26.1673 66.2379 26.1673C63.9151 26.1673 63.0053 27.4129 63.0053 28.4901C63.0053 29.7357 64.2982 30.3584 65.4478 30.3584C67.196 30.3584 69.0399 28.8493 69.0399 26.9337ZM50.7216 20.2528L50.6258 21.8809H50.7216C51.3442 20.8034 52.8289 19.8696 54.4334 19.8696C57.4265 19.8696 58.9112 21.9049 58.9112 24.8027V31.9865H56.7081V25.1378C56.7081 22.6953 55.4869 21.8809 53.8107 21.8809C51.8948 21.8809 50.7216 23.7011 50.7216 25.497V31.9865H48.5185V14.8411H50.7216V20.2528ZM37.2886 30.358H37.1929L37.2886 31.9862V37.159H35.0855V20.2528H37.1929V21.8812H37.2886C37.9593 20.8037 39.42 19.8696 41.2879 19.8696C44.257 19.8696 46.8673 22.5276 46.8673 26.1196C46.8673 29.7117 44.257 32.3697 41.2879 32.3697C39.42 32.3697 37.9593 31.4356 37.2886 30.358ZM44.6642 26.1196C44.6642 23.4854 42.892 21.8812 40.9287 21.8812C38.9648 21.8812 37.1929 23.4377 37.1929 26.1196C37.1929 28.8016 38.9648 30.358 40.9287 30.358C42.892 30.358 44.6642 28.7539 44.6642 26.1196ZM30.5363 31.9865H32.7394V14.8411H30.5363V31.9865ZM20.3119 14.8408L13.8461 31.9865H16.289L17.9648 27.3409H25.173L26.8254 31.9865H29.2676L22.8022 14.8408H20.3119ZM21.5089 17.5468H21.6049L24.4066 25.2813H18.7075L21.5089 17.5468Z" fill="white"/>
</g>
</svg>
