<svg width="120" height="50" viewBox="0 0 120 50" fill="none" xmlns="http://www.w3.org/2000/svg">
<g style="mix-blend-mode:luminosity">
<path fill-rule="evenodd" clip-rule="evenodd" d="M71.1122 37.8449C65.7481 41.7987 57.9731 43.9082 51.279 43.9082C41.8927 43.9082 33.4427 40.4365 27.0498 34.6626C26.5476 34.2084 26.9976 33.5897 27.6003 33.9433C34.4994 37.9574 43.0298 40.3723 51.8415 40.3723C57.7843 40.3723 64.3217 39.1427 70.3328 36.5913C71.2408 36.2055 72.0002 37.1859 71.1122 37.8449Z" fill="white"/>
<path fill-rule="evenodd" clip-rule="evenodd" d="M73.3414 35.2946C72.6583 34.4186 68.8089 34.8807 67.0811 35.0856C66.5547 35.1499 66.4744 34.6918 66.9485 34.3623C70.0143 32.2047 75.045 32.8275 75.6316 33.5507C76.2182 34.278 75.479 39.3207 72.5979 41.7275C72.156 42.0972 71.734 41.9003 71.9309 41.41C72.5779 39.7948 74.0284 36.1745 73.3414 35.2946Z" fill="white"/>
<path fill-rule="evenodd" clip-rule="evenodd" d="M67.2024 19.129V17.0316C67.2024 16.7141 67.4435 16.5012 67.7328 16.5012H77.1231C77.4245 16.5012 77.6656 16.7181 77.6656 17.0316V18.8276C77.6615 19.129 77.4084 19.5228 76.9584 20.1456L72.0925 27.0928C73.9006 27.0487 75.8092 27.3179 77.4486 28.242C77.8183 28.4509 77.9187 28.7564 77.9468 29.0577V31.2958C77.9468 31.6011 77.6093 31.9587 77.2557 31.7739C74.3667 30.2592 70.5295 30.0944 67.3351 31.79C67.0096 31.9668 66.668 31.6132 66.668 31.3079V29.1823C66.668 28.8408 66.672 28.2581 67.0135 27.7398L72.651 19.6554H67.7448C67.4435 19.6554 67.2024 19.4424 67.2024 19.129ZM32.9482 32.2159H30.0913C29.8181 32.1959 29.6011 31.9909 29.581 31.7297V17.0677C29.581 16.7744 29.8261 16.5413 30.1315 16.5413H32.7955C33.0727 16.5533 33.2937 16.7664 33.3139 17.0315V18.9482H33.3661C34.0612 17.0959 35.3671 16.2321 37.127 16.2321C38.915 16.2321 40.0321 17.0959 40.8357 18.9482C41.5268 17.0959 43.0979 16.2321 44.7815 16.2321C45.9788 16.2321 47.2888 16.7263 48.0883 17.8353C48.9924 19.0688 48.8076 20.8608 48.8076 22.4319L48.8035 31.6856C48.8035 31.9789 48.5585 32.216 48.2531 32.216H45.4003C45.115 32.196 44.8859 31.9669 44.8859 31.6856V23.9146C44.8859 23.2957 44.9422 21.7527 44.8056 21.1662C44.5927 20.1817 43.9538 19.9044 43.126 19.9044C42.4349 19.9044 41.7116 20.3665 41.4183 21.1059C41.125 21.8453 41.1532 23.0828 41.1532 23.9146V31.6855C41.1532 31.9788 40.908 32.2159 40.6027 32.2159H37.7498C37.4605 32.1959 37.2355 31.9668 37.2355 31.6855L37.2315 23.9146C37.2315 22.2792 37.5007 19.8724 35.4715 19.8724C33.4183 19.8724 33.4987 22.2189 33.4987 23.9146V31.6855C33.4987 31.9788 33.2536 32.2159 32.9482 32.2159ZM85.75 16.232C89.989 16.232 92.2834 19.8723 92.2834 24.5012C92.2834 28.9733 89.748 32.5213 85.7499 32.5213C81.5872 32.5213 79.321 28.8809 79.321 24.3444C79.321 19.7799 81.6153 16.232 85.75 16.232ZM85.7741 19.2254C83.6685 19.2254 83.536 22.0944 83.536 23.8824C83.536 25.6745 83.5079 29.4996 85.75 29.4996C87.964 29.4996 88.0684 26.4138 88.0684 24.5333C88.0684 23.2957 88.0161 21.8171 87.6425 20.6438C87.3211 19.6232 86.6822 19.2254 85.7742 19.2254H85.7741ZM97.7802 32.2159H94.9353C94.6501 32.1959 94.421 31.9668 94.421 31.6855L94.417 17.0195C94.441 16.7503 94.6783 16.5413 94.9675 16.5413H97.6154C97.8645 16.5533 98.0695 16.7222 98.1257 16.9512V19.1933H98.1779C98.9776 17.1883 100.099 16.232 102.071 16.232C103.353 16.232 104.603 16.694 105.407 17.9597C106.154 19.1329 106.154 21.1059 106.154 22.5243V31.7538C106.122 32.011 105.885 32.2159 105.603 32.2159H102.738C102.477 32.1959 102.26 32.0029 102.232 31.7538V23.79C102.232 22.1868 102.417 19.8401 100.444 19.8401C99.7491 19.8401 99.1101 20.3063 98.7928 21.0134C98.3909 21.9096 98.3386 22.8015 98.3386 23.79V31.6855C98.3347 31.9788 98.0855 32.2159 97.7802 32.2159ZM59.7167 25.2124C59.7167 26.3254 59.7449 27.2536 59.1823 28.242C58.7283 29.0457 58.0051 29.5398 57.2054 29.5398C56.1085 29.5398 55.4656 28.7041 55.4656 27.4705C55.4656 25.0356 57.6475 24.5936 59.7167 24.5936V25.2124ZM62.5976 32.1757C62.4089 32.3445 62.1356 32.3566 61.9227 32.244C60.9744 31.4565 60.8016 31.0908 60.2833 30.3395C58.7162 31.9387 57.6032 32.4168 55.574 32.4168C53.1672 32.4168 51.2988 30.9341 51.2988 27.9648C51.2988 25.6464 52.5524 24.0672 54.3445 23.2957C55.8955 22.6127 58.0613 22.4921 59.7168 22.3032V21.9336C59.7168 21.2545 59.769 20.4509 59.3671 19.8643C59.0216 19.338 58.3545 19.1209 57.7639 19.1209C56.675 19.1209 55.7067 19.6794 55.4696 20.8367C55.4214 21.0938 55.2325 21.3469 54.9714 21.359L52.2029 21.0617C51.9699 21.0095 51.7087 20.8206 51.777 20.463C52.4119 17.1039 55.4495 16.0913 58.1659 16.0913C59.5561 16.0913 61.3723 16.461 62.4692 17.5138C63.8594 18.8116 63.7268 20.5433 63.7268 22.4279V26.8799C63.7268 28.218 64.2814 28.8045 64.8037 29.5278C64.9846 29.785 65.0247 30.0944 64.7917 30.2872C64.2091 30.7734 63.1723 31.6775 62.6018 32.1838L62.5978 32.1757H62.5976ZM22.2641 25.2124C22.2641 26.3254 22.2922 27.2536 21.7296 28.242C21.2756 29.0457 20.5564 29.5398 19.7527 29.5398C18.6559 29.5398 18.0169 28.7041 18.0169 27.4705C18.0169 25.0356 20.1988 24.5936 22.2641 24.5936V25.2124ZM25.145 32.1757C24.9562 32.3445 24.683 32.3566 24.47 32.244C23.5218 31.4565 23.3529 31.0908 22.8307 30.3395C21.2635 31.9387 20.1547 32.4168 18.1214 32.4168C15.7186 32.4168 13.8462 30.9341 13.8462 27.9648C13.8462 25.6464 15.1039 24.0672 16.8919 23.2957C18.4429 22.6127 20.6086 22.4921 22.2641 22.3032V21.9336C22.2641 21.2545 22.3163 20.4509 21.9185 19.8643C21.5689 19.338 20.902 19.1209 20.3153 19.1209C19.2264 19.1209 18.254 19.6794 18.0169 20.8367C17.9687 21.0938 17.7799 21.3469 17.5227 21.359L14.7502 21.0617C14.5171 21.0095 14.2601 20.8206 14.3243 20.463C14.9632 17.1039 17.9969 16.0913 20.7131 16.0913C22.1033 16.0913 23.9195 16.461 25.0165 17.5138C26.4067 18.8116 26.2741 20.5433 26.2741 22.4279V26.8799C26.2741 28.218 26.8286 28.8045 27.351 29.5278C27.5359 29.785 27.576 30.0944 27.3429 30.2872C26.7603 30.7734 25.7237 31.6775 25.1531 32.1838L25.1451 32.1757" fill="white"/>
</g>
</svg>
