<svg width="120" height="50" viewBox="0 0 120 50" fill="none" xmlns="http://www.w3.org/2000/svg">
<g style="mix-blend-mode:luminosity">
<path d="M29.7296 31.8765C32.4286 31.4006 35.1274 30.923 37.8259 30.4436L37.9019 30.4274L33.7373 25.4739C31.4469 22.7495 29.5729 20.5098 29.5729 20.4971C29.5729 20.4727 33.8731 8.63085 33.8973 8.58863C33.9053 8.57468 36.8317 13.627 40.9911 20.836C44.8851 27.5851 48.0955 33.1497 48.1253 33.2019L48.1795 33.2966L34.9446 33.2949L21.7096 33.2931L29.7296 31.8765ZM80.4844 30.6784C78.4696 30.5494 77.2981 29.4022 76.9876 27.2549C76.9049 26.6838 76.9045 26.6688 76.8961 22.9607L76.8879 19.3716H78.6712L78.6782 22.843C78.6845 25.9719 78.6885 26.3387 78.7183 26.5587C78.8398 27.452 79.0815 28.0528 79.4929 28.4838C79.8222 28.8289 80.2077 29.031 80.7413 29.1381C80.9932 29.1887 81.7095 29.1887 81.9388 29.1383C82.4798 29.0194 82.9134 28.7839 83.296 28.4015C83.7321 27.9657 84.0545 27.3473 84.2106 26.6484L84.2631 26.4125L84.269 22.9117L84.2748 19.4109H86.0954V30.4177H84.2936V29.5446C84.2936 28.9513 84.2872 28.6734 84.2734 28.6781C84.2622 28.6818 84.2158 28.7526 84.1704 28.8355C83.8599 29.4015 83.3427 29.9195 82.776 30.2314C82.0965 30.6052 81.4154 30.7383 80.4844 30.6786V30.6784ZM100.933 30.6697C100.222 30.6162 99.4728 30.3716 98.8609 29.9929C97.5709 29.1952 96.8077 27.8799 96.5841 26.0698C96.5068 25.4435 96.4976 24.602 96.5621 24.0698C96.7062 22.8806 97.1735 21.7131 97.839 20.8796C98.0096 20.6661 98.3967 20.2791 98.6102 20.1086C99.1856 19.6486 99.8591 19.3271 100.579 19.1689C100.996 19.0777 101.731 19.0348 102.175 19.0759C103.289 19.1792 104.31 19.7038 105.004 20.5294C105.709 21.3684 106.097 22.5407 106.147 23.984C106.154 24.2102 106.156 24.6067 106.151 24.8652L106.141 25.3354L102.239 25.3402L98.3362 25.3451V25.5194C98.3362 26.0495 98.4649 26.6533 98.6878 27.167C98.8799 27.6101 99.2106 28.0938 99.4815 28.3279C100.037 28.8079 100.716 29.0952 101.46 29.1643C101.735 29.19 102.438 29.1629 102.752 29.1146C103.649 28.9768 104.501 28.6253 105.189 28.1093C105.246 28.0662 105.304 28.0242 105.362 27.9832C105.382 27.9706 105.387 28.1292 105.386 28.7961L105.385 29.6245L105.201 29.7386C104.422 30.22 103.53 30.5293 102.586 30.645C102.304 30.6795 101.27 30.695 100.933 30.6695V30.6697ZM104.329 23.6825C104.329 22.7945 103.955 21.808 103.425 21.3C103.047 20.9376 102.591 20.716 102.047 20.6319C101.79 20.5922 101.249 20.6075 100.978 20.6621C100.405 20.778 99.9318 21.0297 99.5185 21.4379C99.0838 21.8675 98.7578 22.3894 98.5528 22.9839C98.479 23.1978 98.3929 23.5487 98.3662 23.7441L98.3533 23.8371H104.329L104.329 23.6825ZM51.3948 30.3932C51.3993 30.3796 52.7246 26.8985 54.3395 22.6572L57.276 14.9456H59.163L59.2413 15.1462C59.4804 15.7597 65.1199 30.4009 65.1199 30.4086C65.1199 30.4135 64.6681 30.4177 64.1162 30.4175L63.1124 30.4173L62.2996 28.2534L61.4867 26.0893H54.9417L54.9131 26.1627C54.8974 26.2032 54.5503 27.1769 54.1414 28.3265L53.3983 30.417L52.3923 30.4173C51.5961 30.4175 51.3882 30.4124 51.3948 30.3931V30.3932ZM60.8896 24.4379C60.8896 24.4344 60.3425 22.9516 59.6739 21.1427C58.4232 17.7586 58.3534 17.555 58.2545 17.0116C58.2083 16.7569 58.1847 16.75 58.1571 16.9823C58.1376 17.1484 58.0525 17.5203 57.9865 17.7265C57.9539 17.8289 57.3908 19.3746 56.7351 21.1617C56.0792 22.9487 55.5428 24.4182 55.5428 24.4274C55.5428 24.4366 56.7458 24.4441 58.2161 24.4441C59.6865 24.4441 60.8894 24.4414 60.8894 24.438L60.8896 24.4379ZM65.7269 30.1358V29.854L68.9876 25.3718L72.248 20.8896L69.296 20.8796L66.3439 20.8699L66.3387 20.1208L66.3336 19.3716H74.8732V19.8777L71.6124 24.3843C69.8188 26.8631 68.3514 28.8953 68.3514 28.9004C68.3514 28.9054 69.8012 28.9096 71.5731 28.9096H74.7948V30.4177H65.7269V30.1358ZM89.6534 30.4046C89.6463 30.3974 89.6404 27.912 89.6404 24.8816V19.3716H91.4226V20.5076C91.4226 21.1324 91.4301 21.6435 91.4395 21.6435C91.4488 21.6435 91.492 21.5413 91.5358 21.4162C91.7363 20.8435 92.0836 20.3084 92.5313 19.8829C92.9345 19.4998 93.3953 19.2706 93.9392 19.1829C94.0921 19.1585 94.2213 19.1536 94.5268 19.1616C94.9105 19.1715 95.1111 19.1996 95.3445 19.2759L95.4178 19.2999V21.1499L95.2074 21.0445C94.8355 20.8584 94.4685 20.7846 94.0273 20.8076C93.7402 20.8224 93.5518 20.8594 93.3223 20.9454C92.8563 21.1176 92.4611 21.4404 92.1994 21.8626C91.8118 22.4808 91.5355 23.2754 91.454 24.0058C91.4394 24.1368 91.4308 25.2042 91.4273 27.3084L91.4221 30.4177H90.5443C90.0615 30.4177 89.6606 30.4117 89.6534 30.4046ZM13.8462 30.3659C13.8462 30.3589 15.8084 26.9526 18.2068 22.7962L22.5674 15.2391L27.6492 10.9746C30.4441 8.6291 32.7385 6.70695 32.7477 6.70346C32.7568 6.69998 32.7202 6.79243 32.6659 6.90895C32.6119 7.02565 30.1287 12.3516 27.1479 18.7447L21.728 30.3685L17.7871 30.3735C15.6197 30.3763 13.8462 30.3728 13.8462 30.3659Z" fill="white"/>
</g>
</svg>
