<svg width="120" height="50" viewBox="0 0 120 50" fill="none" xmlns="http://www.w3.org/2000/svg">
<g style="mix-blend-mode:luminosity">
<path d="M43.375 26.7148L44.5279 24.037C45.7738 24.9668 47.4288 25.4503 49.0652 25.4503C50.2739 25.4503 51.0363 24.9854 51.0363 24.2787C51.0177 22.3076 43.8027 23.8511 43.7469 18.9047C43.7283 16.3943 45.9598 14.4604 49.121 14.4604C50.9992 14.4604 52.8773 14.9252 54.2162 15.9852L53.1376 18.7187C51.9103 17.9377 50.3855 17.3798 48.9351 17.3798C47.9495 17.3798 47.2987 17.8447 47.2987 18.4398C47.3173 20.3737 54.5881 19.3138 54.6625 24.037C54.6625 26.6032 52.4868 28.4069 49.3628 28.4069C47.0755 28.4069 44.9742 27.8677 43.375 26.7148ZM87.6135 23.07C87.0371 24.0742 85.9585 24.7622 84.7127 24.7622C82.8717 24.7622 81.3841 23.2746 81.3841 21.4336C81.3841 19.5927 82.8717 18.1051 84.7127 18.1051C85.9585 18.1051 87.0371 18.7931 87.6135 19.7973L90.7934 18.0307C89.6032 15.9108 87.316 14.4604 84.7127 14.4604C80.8634 14.4604 77.7394 17.5844 77.7394 21.4336C77.7394 25.2829 80.8634 28.4069 84.7127 28.4069C87.3346 28.4069 89.6032 26.9751 90.7934 24.8366L87.6135 23.07ZM56.2617 8.67719H60.2411V28.1466H56.2617V8.67719ZM92.3554 8.67719V28.1466H96.3348V22.3076L101.058 28.1466H106.153L100.147 21.2105L105.707 14.7393H100.835L96.3348 20.1134V8.67719H92.3554ZM72.0678 23.1072C71.4913 24.0556 70.3012 24.7622 68.9623 24.7622C67.1214 24.7622 65.6338 23.2746 65.6338 21.4336C65.6338 19.5927 67.1214 18.1051 68.9623 18.1051C70.3012 18.1051 71.4913 18.8489 72.0678 19.8158V23.1072ZM72.0678 14.7393V16.3199C71.4169 15.2228 69.7991 14.4604 68.1069 14.4604C64.611 14.4604 61.8589 17.5472 61.8589 21.4151C61.8589 25.2829 64.611 28.4069 68.1069 28.4069C69.7991 28.4069 71.4169 27.6445 72.0678 26.5474V28.128H76.0472V14.7393H72.0678Z" fill="white"/>
<path d="M18.7738 23.0875C18.7738 24.4449 17.6767 25.5421 16.3192 25.5421C14.9617 25.5421 13.8646 24.4449 13.8646 23.0875C13.8646 21.73 14.9617 20.6329 16.3192 20.6329H18.7738V23.0875ZM20.0011 23.0875C20.0011 21.73 21.0982 20.6329 22.4557 20.6329C23.8131 20.6329 24.9103 21.73 24.9103 23.0875V29.224C24.9103 30.5814 23.8131 31.6786 22.4557 31.6786C21.0982 31.6786 20.0011 30.5814 20.0011 29.224V23.0875Z" fill="white"/>
<path d="M22.4561 13.2322C21.0986 13.2322 20.0015 12.1351 20.0015 10.7776C20.0015 9.42013 21.0986 8.323 22.4561 8.323C23.8135 8.323 24.9107 9.42013 24.9107 10.7776V13.2322H22.4561ZM22.4561 14.4781C23.8135 14.4781 24.9107 15.5752 24.9107 16.9327C24.9107 18.2901 23.8135 19.3873 22.4561 19.3873H16.301C14.9435 19.3873 13.8464 18.2901 13.8464 16.9327C13.8464 15.5752 14.9435 14.4781 16.301 14.4781H22.4561Z" fill="white"/>
<path d="M32.293 16.9327C32.293 15.5752 33.3902 14.4781 34.7476 14.4781C36.1051 14.4781 37.2022 15.5752 37.2022 16.9327C37.2022 18.2901 36.1051 19.3873 34.7476 19.3873H32.293V16.9327ZM31.0657 16.9327C31.0657 18.2901 29.9686 19.3873 28.6112 19.3873C27.2537 19.3873 26.1566 18.2901 26.1566 16.9327V10.7776C26.1566 9.42013 27.2537 8.323 28.6112 8.323C29.9686 8.323 31.0657 9.42013 31.0657 10.7776V16.9327Z" fill="white"/>
<path d="M28.6112 26.7697C29.9686 26.7697 31.0657 27.8668 31.0657 29.2243C31.0657 30.5817 29.9686 31.6789 28.6112 31.6789C27.2537 31.6789 26.1566 30.5817 26.1566 29.2243V26.7697H28.6112ZM28.6112 25.5424C27.2537 25.5424 26.1566 24.4452 26.1566 23.0878C26.1566 21.7303 27.2537 20.6332 28.6112 20.6332H34.7662C36.1237 20.6332 37.2208 21.7303 37.2208 23.0878C37.2208 24.4452 36.1237 25.5424 34.7662 25.5424H28.6112Z" fill="white"/>
</g>
</svg>
