<svg width="321" height="313" viewBox="0 0 321 313" fill="none" xmlns="http://www.w3.org/2000/svg">
<path d="M8.62836 136.715C8.96342 136.603 9.29848 136.547 9.68939 136.435C10.0803 136.324 10.4712 136.324 10.8621 136.268C11.253 136.212 11.6998 136.212 12.0348 136.212C12.2024 136.212 12.4257 136.212 12.5933 136.212C12.7608 136.212 12.8725 136.212 13.04 136.212C13.1517 136.212 13.2634 136.212 13.3751 136.212C13.4309 136.212 13.5426 136.212 13.5985 136.212H13.4309C13.3192 136.212 13.2075 136.156 13.0959 136.156C12.9283 136.1 12.705 136.044 12.4816 135.989L12.314 135.933H12.2582H12.2024C6.84135 134.146 58.8319 151.346 36.8295 144.086L36.8853 143.918L37.0529 143.583C37.8905 141.852 38.6723 139.842 39.3983 137.943C38.1697 139.227 37.1645 140.624 36.271 142.187C36.0477 142.578 35.8243 143.025 35.6568 143.416L35.6009 143.583V143.639C-11.1404 128.17 22.6452 139.339 12.2024 135.877L12.3699 135.933C12.5933 135.989 12.8166 136.044 13.04 136.1C13.1517 136.156 13.3192 136.156 13.4309 136.212L13.5985 136.268H13.5426C13.4309 136.268 13.3751 136.268 13.2634 136.268C13.0959 136.268 12.9283 136.268 12.7608 136.268C12.5374 136.268 12.314 136.268 12.0907 136.268C11.0855 136.212 9.74523 136.379 8.62836 136.715Z" fill="#FFF29C"/>
<path d="M39.3983 137.831V137.776C39.3983 137.831 39.3425 137.887 39.3425 137.887C39.3983 137.887 39.3983 137.887 39.3983 137.831Z" fill="#FFF29C"/>
<path d="M314.485 310.054C314.652 308.881 314.82 307.597 314.988 306.256C314.764 307.485 314.541 308.769 314.485 310.054Z" fill="#FFF29C"/>
<path d="M139.08 70.8747C139.08 70.8747 139.526 70.2605 139.973 69.6462C140.42 69.0319 140.866 68.4176 140.866 68.4176C141.369 68.4735 140.811 69.1994 140.252 69.8137C139.75 70.428 139.191 70.9864 139.638 70.7631C141.481 69.1436 141.816 69.367 141.648 69.7579C141.537 70.1488 140.922 70.5955 142.374 70.0371C141.983 70.2046 141.983 70.5397 140.308 71.2098C141.76 70.6514 141.983 70.7072 141.872 70.8189C141.816 70.9306 141.425 71.154 141.816 71.0981C142.653 70.9306 142.709 70.8189 143.603 70.4838C143.603 70.4838 143.882 70.5397 144.161 70.6514C144.441 70.7631 144.664 70.8747 144.664 70.8747C143.659 71.3215 141.928 71.5449 141.648 71.4332C141.369 71.7124 140.755 72.1592 140.196 72.3825C139.917 72.4942 139.638 72.6059 139.359 72.6618C139.247 72.6618 139.135 72.7176 139.024 72.7176C138.968 72.7176 138.912 72.7176 138.856 72.7176C138.856 72.7176 138.856 72.7176 138.8 72.7176L138.13 73.2202L136.678 74.3371C132.657 77.2968 128.302 80.2565 123.834 83.1604C119.367 86.0643 114.787 88.9681 110.487 91.7045C108.533 92.9889 106.578 94.2175 104.736 95.3902C102.669 96.7304 100.659 98.0148 98.7603 99.2434C94.907 101.756 91.3889 104.158 88.1499 106.336C86.5863 107.452 85.0785 108.513 83.6266 109.519C82.1746 110.524 80.9461 111.529 79.7175 112.423C78.489 113.372 77.3721 114.21 76.3669 114.991C75.3617 115.829 74.4682 116.555 73.6305 117.225C74.8591 116.778 76.2552 115.997 77.7071 115.047C79.2149 114.154 80.7786 113.093 82.398 112.032C83.9617 110.971 85.637 110.021 87.2006 109.239C88.7642 108.458 90.272 107.899 91.5564 107.732C88.4292 110.747 85.637 112.534 83.4591 114.042C82.3422 114.768 81.337 115.438 80.5552 116.108C79.7175 116.778 79.1032 117.448 78.7123 118.23C77.2046 118.23 75.3617 118.956 73.463 120.073C71.5643 121.19 69.4981 122.754 67.4319 124.317C66.4267 125.099 65.3657 125.937 64.3046 126.774C63.802 127.165 63.2436 127.556 62.6852 127.947C62.1267 128.338 61.6241 128.729 61.1215 129.12C60.0605 129.846 58.9995 130.572 57.9384 131.13C57.38 131.409 56.8216 131.689 56.319 131.968C55.7605 132.247 55.2579 132.47 54.6995 132.638C54.6995 132.638 54.867 133.196 55.0346 133.811C55.2021 134.369 55.4255 134.928 55.4255 134.928C55.4255 134.928 54.3086 135.542 53.1917 136.156C52.6333 136.491 52.0748 136.77 51.6839 136.994C51.293 137.217 51.0138 137.385 51.0138 137.385C45.4294 143.863 42.9165 147.381 41.3528 149.503C39.845 151.569 39.3424 152.239 38.8399 152.742C38.3373 153.3 37.8347 153.691 36.271 155.422C35.4892 156.26 34.484 157.433 33.0879 159.108C32.362 159.946 31.636 160.895 30.7425 161.956C30.2957 162.514 29.849 163.073 29.3464 163.687C28.8438 164.301 28.3971 164.972 27.8945 165.642C23.5387 172.064 21.8633 176.643 20.5231 180.329C19.853 182.227 19.3504 183.847 18.6244 185.522C18.2893 186.36 17.9543 187.142 17.5075 187.979C17.2841 188.37 17.0608 188.817 16.8374 189.208C16.614 189.655 16.3348 190.045 16.1114 190.492C16.3348 189.99 17.1725 188.984 17.8984 188.482C18.6244 187.979 19.127 187.979 18.7919 189.431C18.1218 189.71 17.675 190.325 17.34 191.106C17.1725 191.497 17.0049 191.944 16.8932 192.447C16.7815 192.893 16.6699 193.396 16.5582 193.899C16.4465 194.401 16.3348 194.904 16.2231 195.406C16.1114 195.909 15.9997 196.356 15.8322 196.803C15.4971 197.696 15.0504 198.478 14.2686 199.036C13.9335 200.432 12.8725 203.448 12.7049 205.57C12.4257 207.692 12.7608 208.977 14.7153 206.854C14.492 207.078 14.2686 207.413 14.0452 207.748C13.5984 208.474 13.1517 209.367 12.7049 210.261C12.2582 211.154 11.9231 212.104 11.5322 212.774C11.1972 213.5 10.9179 213.947 10.6946 214.058C10.4712 214.114 10.2478 213.835 10.1361 212.83C9.5777 215.566 8.90757 218.358 9.46601 220.034C9.46601 220.034 9.68938 219.084 9.9686 218.135C10.2478 217.186 10.527 216.236 10.527 216.236C10.2478 220.704 9.85692 224.334 10.0244 227.461C10.192 230.588 10.8621 233.213 12.7049 235.502C12.7049 235.502 12.7049 234.553 12.7608 233.604C12.8166 232.654 12.8725 231.705 12.8725 231.705C13.4868 234.33 14.1569 236.619 14.827 238.853C15.4413 241.087 16.0556 243.265 15.7764 245.052C15.7764 245.052 15.4971 244.717 15.1062 244.158C14.7153 243.656 14.2127 242.93 13.7101 242.204C12.7608 240.807 12.0348 239.523 12.0348 239.523C12.4816 240.64 13.04 241.757 13.6543 242.874C14.2686 243.991 14.9387 245.052 15.6088 246.001C17.0049 247.955 18.3452 249.407 19.6296 250.524C20.914 251.697 22.1984 252.591 23.5945 253.372C24.2646 253.763 24.9906 254.154 25.7724 254.545C26.5542 254.88 27.336 255.215 28.1737 255.494L26.275 254.21C26.8334 254.378 27.5594 254.601 28.3412 254.936C28.7321 255.103 29.1789 255.271 29.6256 255.439C30.0724 255.606 30.575 255.774 31.0776 255.941C33.0879 256.667 35.5451 257.393 38.2814 257.952C38.9515 258.119 39.6775 258.231 40.4035 258.398C41.1294 258.51 41.8554 258.622 42.6372 258.733C44.145 259.013 45.7645 259.068 47.384 259.236C50.6787 259.403 54.1969 259.459 57.8826 259.18C61.5683 258.957 65.4773 258.398 69.3864 257.728C71.3968 257.393 73.2955 257.058 75.3617 256.555C76.3669 256.332 77.3721 256.109 78.3214 255.885C79.3266 255.606 80.3318 255.383 81.337 255.103C81.8396 254.992 82.2863 254.824 82.7889 254.713C83.0123 254.657 83.2357 254.601 83.5149 254.545C83.7383 254.489 84.0175 254.378 84.2409 254.322C85.2461 254.042 86.1954 253.763 87.0889 253.484C87.5357 253.316 87.9824 253.205 88.4292 253.037C88.6525 252.981 88.8759 252.87 89.0993 252.814C89.3227 252.758 89.546 252.646 89.7694 252.591C90.6629 252.255 91.5564 251.976 92.3941 251.641C93.2317 251.306 94.0135 251.027 94.7953 250.748C95.1863 250.58 95.5213 250.468 95.8564 250.301C96.0239 250.245 96.1915 250.189 96.359 250.078C96.5265 250.022 96.694 249.91 96.9174 249.854C98.3135 249.24 99.4862 248.681 100.491 248.179C100.491 248.179 99.4304 247.955 98.3693 247.732C98.2577 247.676 98.0901 247.676 97.9785 247.62C97.8668 247.565 97.7551 247.565 97.6434 247.509C97.42 247.453 97.2525 247.341 97.0291 247.285C96.694 247.174 96.4707 247.062 96.4707 247.062C96.4707 247.062 97.1966 246.783 98.2577 246.336C98.5369 246.224 98.8161 246.113 99.0953 245.945C99.4304 245.778 99.7654 245.666 100.101 245.498C100.826 245.163 101.552 244.828 102.278 244.493C103.73 243.823 105.238 243.153 106.355 242.65C107.528 242.092 108.254 241.701 108.254 241.701C107.919 241.813 107.137 242.483 106.132 243.488C105.071 244.493 103.898 245.722 102.669 246.894C100.212 249.296 97.7551 251.585 97.4759 251.306C98.2577 251.083 99.0953 250.803 100.045 250.524C100.547 250.357 101.05 250.245 101.552 250.078C101.832 250.022 102.055 249.91 102.334 249.854C102.613 249.742 102.893 249.631 103.228 249.575C104.456 249.184 105.741 248.681 107.137 248.235C107.807 248.011 108.533 247.732 109.315 247.509C109.706 247.397 110.041 247.285 110.432 247.118C110.823 246.95 111.213 246.783 111.66 246.671C118.138 244.27 126.291 240.752 135.17 236.954C144.05 233.269 153.487 229.806 163.316 227.237C164.544 226.902 165.829 226.567 167.057 226.232C167.839 226.065 168.621 225.897 169.403 225.674C170.017 225.506 170.631 225.395 171.301 225.227C171.916 225.115 172.586 224.948 173.2 224.836C173.814 224.724 174.484 224.557 175.099 224.445C175.713 224.334 176.383 224.222 176.997 224.11C178.282 223.887 179.51 223.663 180.795 223.496C185.821 222.77 190.847 222.379 195.482 222.323C196.654 222.323 197.771 222.323 198.944 222.323C200.061 222.379 201.178 222.435 202.239 222.435C203.3 222.547 204.361 222.602 205.422 222.714C206.483 222.77 207.432 222.937 208.438 223.049C212.347 223.552 215.753 224.222 218.434 225.004C219.104 225.171 219.774 225.339 220.332 225.506C220.891 225.73 221.449 225.897 221.952 226.065C222.957 226.4 223.795 226.735 224.409 227.014C226.308 228.243 226.252 228.969 225.693 229.471C225.135 229.974 224.13 230.253 224.074 230.365C225.358 230.588 226.14 230.644 226.698 230.644C227.257 230.644 227.536 230.532 227.871 230.421C228.15 230.309 228.43 230.253 228.821 230.309C229.044 230.309 229.323 230.365 229.658 230.476C229.993 230.588 230.384 230.756 230.831 231.035C231.78 231.817 229.993 232.319 229.323 232.263C230.217 232.543 230.943 232.989 231.557 233.269C232.171 233.548 232.562 233.715 232.841 233.38C232.004 232.543 231.948 231.761 232.171 230.867C232.395 230.03 232.785 229.136 232.618 228.243C232.618 228.243 232.953 228.41 233.456 228.634C233.958 228.857 234.572 229.192 235.187 229.583C235.801 229.918 236.415 230.253 236.918 230.532C237.365 230.811 237.644 230.979 237.644 230.979L236.694 232.152C237.197 232.487 238.37 231.984 240.045 231.817C241.609 231.761 243.731 232.04 245.741 234.05C247.807 235.726 249.539 237.401 250.767 238.797C250.935 238.965 251.046 239.076 251.158 239.244C251.27 239.356 251.381 239.523 251.493 239.635C251.716 239.914 251.94 240.193 252.107 240.472C252.498 241.031 252.889 241.645 253.224 242.259C253.727 243.209 254.062 244.27 254.341 245.331L254.509 246.113C254.565 246.504 254.62 246.839 254.676 247.285C254.732 247.676 254.788 248.123 254.788 248.57L254.844 249.24L254.9 249.966C254.006 249.91 253.336 248.179 252.554 246.95C252.666 247.788 253.113 249.24 252.554 250.357C253.224 249.296 253.615 250.078 253.783 251.083C253.839 251.306 253.894 251.585 253.95 251.809C254.006 252.032 254.006 252.255 254.062 252.423C254.118 252.702 254.229 252.758 254.397 252.311C255.402 253.987 255.905 256.109 256.072 258.454C256.128 259.013 256.184 259.627 256.184 260.297C256.184 260.911 256.184 261.526 256.184 262.196C256.184 263.424 256.128 264.709 256.072 265.937C255.793 270.907 255.235 275.71 256.072 279.786C256.854 280.01 260.651 281.518 265.957 283.751C271.206 285.985 277.963 289.001 284.664 292.128C291.366 295.255 298.067 298.606 303.316 301.175C308.565 303.743 312.307 305.642 313.312 305.754C312.754 308.714 312.195 311.617 311.749 312.455C312.81 311.841 314.206 306.145 314.15 302.962L312.139 302.124C312.307 298.55 312.642 298.159 313.089 297.824C313.536 297.489 314.038 297.154 314.373 293.692C316.104 293.524 315.714 300.002 314.988 305.642C315.993 300.616 317.836 295.646 316.216 293.357C317.445 288.61 318.226 294.138 319.567 288.386C319.511 284.142 318.282 278.614 319.567 273.923L319.846 274.035C320.46 271.131 320.628 268.562 320.572 266.216C320.572 265.044 320.46 263.871 320.349 262.754C320.237 261.637 320.125 260.576 319.958 259.403C319.79 258.231 319.678 257.058 319.511 255.885C319.343 254.657 319.232 253.428 319.12 252.032C318.897 249.352 318.841 246.392 318.897 242.706L319.623 244.214C319.902 241.645 319.399 237.792 318.338 232.822C317.165 227.405 315.267 221.541 313.312 215.901C313.815 217.521 314.094 219.14 313.815 219.531C313.536 219.922 312.865 219.084 311.358 215.901C310.967 214.896 310.576 213.891 310.185 212.941C307.784 207.58 304.824 203.336 301.92 199.651C301.194 198.757 300.468 197.808 299.686 196.97C298.96 196.132 298.234 195.239 297.508 194.401C296.168 192.838 294.94 191.386 293.711 189.822C293.711 189.822 293.264 189.543 292.594 189.208C291.924 188.817 291.086 188.37 290.193 187.868C289.355 187.421 288.462 186.974 287.847 186.639C287.233 186.36 286.786 186.136 286.786 186.136C285.055 184.684 282.989 183.232 280.644 181.557C280.029 181.166 279.471 180.72 278.801 180.273C278.186 179.882 277.516 179.435 276.846 178.988C275.506 178.151 274.11 177.201 272.602 176.364C266.627 172.79 259.367 169.272 251.27 166.312C243.172 163.352 234.293 160.951 225.023 159.443C215.753 157.879 206.204 157.209 196.766 157.321C187.217 157.433 178.058 158.326 169.459 159.722C165.159 160.448 161.026 161.23 157.061 162.124C156.056 162.347 155.107 162.57 154.101 162.794L153.711 162.905H153.599L153.822 162.85H153.934H153.878L153.766 162.905C153.599 162.961 153.431 163.073 153.264 163.129C151.979 163.743 150.695 164.413 149.969 164.748L150.248 164.357C149.355 164.86 148.238 165.474 147.009 166.144C145.725 166.814 144.273 167.485 142.598 167.987C141.76 168.211 140.867 168.434 139.917 168.49C139.47 168.546 138.968 168.546 138.465 168.49C138.018 168.434 137.628 168.099 137.516 167.764C137.292 167.094 137.292 166.479 137.292 165.865C137.292 165.251 137.348 164.692 137.46 164.19C137.683 163.017 137.907 162.068 137.907 161.174C139.917 160.504 140.867 160.057 141.592 159.611C142.263 159.22 142.709 158.829 143.435 158.55C142.709 158.717 141.816 158.773 141.202 158.773C140.587 158.773 140.252 158.605 140.531 158.438C141.983 157.265 141.648 157.209 141.09 157.098C140.587 156.986 139.805 156.818 141.146 155.366C141.704 154.473 143.435 153.021 145.725 151.513C146.283 151.122 146.898 150.731 147.568 150.34C150.025 148.777 152.538 147.157 155.107 145.538C160.579 142.02 166.443 138.222 172.307 134.09C175.266 132.024 178.226 129.902 181.186 127.612L182.303 126.774L182.638 126.551L183.029 126.216L183.866 125.546C184.927 124.652 186.044 123.815 187.105 122.921C188.166 122.028 189.227 121.134 190.232 120.241C191.238 119.347 192.354 118.454 193.304 117.504C201.345 110.189 208.27 102.538 213.631 95.2785C214.245 94.385 214.915 93.4357 215.53 92.5422C215.865 92.0954 216.144 91.6486 216.479 91.2019C216.758 90.7551 217.093 90.3084 217.373 89.8616C217.875 88.9681 218.434 88.0746 218.936 87.237C219.215 86.7902 219.439 86.3993 219.718 85.9526L220.109 85.3383L220.444 84.724C221.282 83.0487 222.175 81.4292 222.901 79.8098C223.236 79.0279 223.627 78.2461 223.906 77.4643C224.185 76.6825 224.521 75.9565 224.8 75.2306C225.861 72.2708 226.643 69.5903 227.257 67.189C227.48 65.9605 227.759 64.8436 227.927 63.7826C228.039 63.28 228.095 62.7215 228.206 62.2748C228.262 61.7722 228.318 61.3254 228.374 60.8787C228.039 57.193 227.704 53.2281 226.866 49.0956C226.643 48.0905 226.419 47.0294 226.14 45.9684C225.972 45.4658 225.861 44.9074 225.749 44.4048C225.582 43.9022 225.414 43.3996 225.247 42.8411C224.576 40.7749 223.795 38.7087 222.845 36.7542C221.896 34.7996 220.891 32.9009 219.718 31.1139C218.545 29.3828 217.261 27.7075 215.921 26.1997C213.24 23.1841 210.169 20.727 206.93 18.7725L208.605 19.2751C206.986 18.1582 204.417 16.3153 200.899 14.305C200.452 14.0257 200.005 13.8024 199.502 13.5231C199 13.2998 198.553 12.9647 197.995 12.7413C196.934 12.2387 195.761 11.7361 194.588 11.2335C193.416 10.7309 192.187 10.1725 190.958 9.61407C190.344 9.33485 189.674 9.05563 189.06 8.77641C188.892 8.72057 188.725 8.60888 188.557 8.55304L187.999 8.38551C187.664 8.27382 187.273 8.16213 186.882 8.05045C175.49 3.97385 159.853 0.790747 143.659 0.120622C141.648 -0.0469099 139.582 0.00893561 137.683 0.00893561C136.287 0.00893561 134.891 0.00893561 133.495 0.00893561C130.703 0.120623 127.967 0.23231 125.23 0.343998C122.55 0.567373 119.869 0.846594 117.356 1.06997C114.787 1.34919 112.33 1.7401 109.985 2.131C109.426 2.24269 108.812 2.29853 108.254 2.41022C107.695 2.52191 107.137 2.6336 106.578 2.74528C105.462 2.96866 104.4 3.19203 103.395 3.41541C102.39 3.63878 101.385 3.86216 100.436 4.02969C99.4862 4.25306 98.5927 4.53228 97.6992 4.75566C95.9681 5.20241 94.4044 5.64916 93.0642 6.04007C91.7239 6.43098 90.6071 6.87773 89.6577 7.15695L91.7239 6.87773C88.5967 8.21798 86.3629 9.05563 84.5201 9.55823C82.7331 10.1725 81.3928 10.3959 80.0526 10.5634C78.7682 10.7309 77.4838 10.7868 75.9202 11.066C74.3565 11.3452 72.5137 11.792 69.9449 12.6296C71.1176 13.579 69.163 15.5335 66.5942 17.6556C65.3098 18.7166 63.802 19.7218 62.4059 20.6711C61.0098 21.6763 59.7254 22.514 58.8319 23.0724L58.6644 22.4581C57.2683 23.3517 55.4255 24.5802 53.4709 26.1438C52.4657 26.9257 51.4606 27.7633 50.3437 28.601C49.7852 29.0477 49.2268 29.4945 48.6684 29.9412C48.1099 30.388 47.5515 30.8906 46.993 31.3932C44.7593 33.3477 42.4139 35.3022 40.2359 37.3684C39.1191 38.3736 38.058 39.3788 36.9412 40.3282C35.8801 41.2775 34.8749 42.2827 33.8698 43.1204L33.2555 41.7243C31.8035 43.4554 29.849 45.41 27.8386 47.532C26.8334 48.5931 25.7724 49.6541 24.6555 50.7151C23.5945 51.7762 22.5335 52.9489 21.4724 54.0099C20.4114 55.1268 19.3504 56.132 18.401 57.193C17.4517 58.254 16.5023 59.2592 15.6088 60.2644C14.7153 61.2138 13.9335 62.1073 13.2075 62.9449C12.5374 63.7826 11.9231 64.5085 11.4205 65.1228C10.8063 65.793 10.192 66.5189 9.52185 67.2449C8.85172 67.9709 8.1816 68.6968 7.51148 69.4786C6.17123 71.0423 4.77513 72.6617 3.37903 74.3929C0.58684 77.8552 -2.37288 81.6526 -5.10923 85.8409C-6.50532 87.9071 -7.78973 90.085 -9.07414 92.2629C-9.68842 93.3798 -10.3585 94.4408 -10.917 95.6136C-11.4754 96.7304 -12.0339 97.9031 -12.5923 99.0759C-13.1507 100.249 -13.7092 101.365 -14.2118 102.538C-14.7144 103.711 -15.1611 104.884 -15.6079 106.112C-16.0546 107.285 -16.5014 108.458 -16.8923 109.686C-17.2832 110.915 -17.6741 112.255 -18.0091 113.539C-18.0091 113.539 -18.5676 114.265 -19.4052 115.326C-19.7961 115.885 -20.2987 116.499 -20.8013 117.169C-20.913 117.337 -21.0806 117.504 -21.1922 117.672C-21.3039 117.839 -21.4156 117.951 -21.5273 118.119C-21.7507 118.398 -21.9741 118.677 -22.1974 118.956C-24.0403 121.134 -25.8273 123.368 -25.8273 123.368C-25.8273 123.368 -25.8273 123.368 -25.8273 123.424L-26.0507 124.15C-26.0507 124.15 -26.0507 124.206 -26.0507 124.261C-26.0507 124.317 -26.1065 124.373 -26.1065 124.429C-26.1623 124.541 -26.1623 124.708 -26.2182 124.876C-26.3857 125.546 -26.5533 126.495 -26.6649 127.333C-26.7766 128.226 -26.8883 129.064 -26.9442 129.678C-27 130.293 -27 130.739 -27 130.739C-27 130.739 -26.8325 131.074 -26.4974 131.633C-26.1623 132.191 -25.7156 132.973 -25.0455 133.922C-23.7052 135.821 -21.6948 138.39 -18.6234 141.126C-17.1156 142.467 -15.2728 143.974 -13.1507 145.315L-12.7598 145.538C-12.6481 145.594 -12.4806 145.705 -12.3131 145.817C-12.0339 145.985 -11.6988 146.152 -11.4196 146.32C-10.8053 146.655 -10.2469 146.934 -9.63258 147.213C-8.96245 147.548 -8.29232 147.828 -7.6222 148.051C-6.95207 148.274 -6.33779 148.442 -5.55598 148.609C-4.83001 148.777 -4.10404 148.889 -3.43391 148.944C-2.76379 149 -2.03782 149 -1.36769 148.944C-0.697567 148.889 -0.0274372 148.777 0.531002 148.609L0.977745 148.498C1.14528 148.442 1.31281 148.442 1.53618 148.386C1.87125 148.33 2.20631 148.218 2.54137 148.107C3.2115 147.883 3.76994 147.604 4.27254 147.269C4.94266 146.99 4.83097 146.487 4.99851 146.096C5.22188 145.259 5.50109 144.421 5.72447 143.528C6.61797 140.065 7.39978 136.547 7.84653 133.029C8.06991 131.298 8.23744 129.567 8.29329 127.835C8.29329 127.389 8.34914 126.998 8.34914 126.551C8.34914 126.328 8.34914 126.16 8.34914 125.937C5.16604 147.437 7.45563 131.912 6.72966 136.715L6.67382 136.77C6.61798 136.826 6.50628 136.882 6.45044 136.938L6.28291 137.05L6.33875 137.106C6.3946 137.161 6.3946 137.217 6.45044 137.273V137.217C6.45044 137.217 6.45044 137.161 6.50629 137.161C6.50629 137.106 6.56213 137.106 6.61797 137.05L6.67382 136.994L6.78551 136.882C6.84135 136.826 6.89719 136.77 6.95304 136.715C7.00888 136.715 7.12057 136.603 7.23226 136.547C7.34394 136.491 7.45563 136.435 7.56732 136.38C7.79069 136.268 8.12576 136.1 8.40497 136.044C8.74004 135.933 9.13094 135.821 9.52185 135.765C9.91276 135.654 10.3595 135.654 10.8063 135.598C11.0296 135.598 11.253 135.542 11.4764 135.542C11.6998 135.542 11.8673 135.542 12.0907 135.486C12.2582 135.486 12.4816 135.486 12.6491 135.486C12.8166 135.486 12.9842 135.486 13.1517 135.486C13.5984 135.486 13.766 135.598 12.9842 135.43C12.7608 135.374 12.4816 135.319 12.2582 135.263L12.1465 135.207H12.0907C51.5722 148.33 23.0361 138.837 31.8594 141.796L31.9711 141.741L32.1944 141.573C32.4737 141.35 32.8087 141.182 33.0879 140.959C33.6464 140.512 34.2048 140.009 34.7633 139.451L36.0477 140.233C36.0477 140.233 36.3269 139.172 36.6061 138.167C36.7736 137.664 36.8853 137.105 36.997 136.715C37.1087 136.268 37.1645 136.156 37.1645 136.156C38.1697 134.704 38.3373 133.42 38.5048 132.638C38.5606 132.415 38.5606 132.247 38.6165 132.135C38.6723 131.968 38.7282 131.856 38.784 131.8C38.8957 131.633 39.1191 131.633 39.3983 131.856C39.3983 131.856 39.3424 131.912 39.2866 132.08C39.2308 132.191 39.1191 132.415 39.0632 132.582C38.8957 132.973 38.6723 133.532 38.4489 134.034C38.0022 135.095 37.4996 136.156 37.4996 136.156C39.1749 133.085 39.0074 135.598 39.3425 137.05C40.0126 135.821 40.6269 134.593 41.4645 133.755C41.1294 132.917 40.7385 133.978 40.2359 134.369C40.2918 133.922 40.2918 133.364 40.2918 132.806C40.3476 132.191 40.4593 131.465 40.571 130.795C40.6827 130.125 40.8502 129.455 41.0736 128.785C41.297 128.115 41.5762 127.5 42.0788 126.998C44.0333 123.368 44.3684 127.78 46.6021 123.647C49.6736 118.286 53.3034 113.26 57.2125 108.625C61.1215 103.99 65.3657 99.6902 69.889 95.7811C74.3565 91.872 79.1591 88.3539 84.1292 85.2266C89.0993 82.0994 94.2369 79.4188 99.6538 77.0176C100.38 77.3526 99.7654 77.6318 99.2629 78.1344C100.826 77.2968 102.39 76.4591 103.954 75.8448C104.736 75.5098 105.517 75.1747 106.299 74.8955L106.858 74.6721L107.472 74.4488C107.863 74.3371 108.254 74.1695 108.645 74.0578C109.426 73.7786 110.208 73.4994 110.99 73.2202C111.381 73.0527 111.772 72.941 112.163 72.8293L113.335 72.4942C114.117 72.2708 114.899 71.9916 115.681 71.7124C116.072 71.5449 116.463 71.4332 116.854 71.3215L118.026 70.9864C119.981 71.2656 120.595 72.0475 121.209 72.5501C120.874 72.2708 122.941 71.7682 126.18 71.0423C127.017 70.9306 127.911 70.7631 128.86 70.6514C129.809 70.5397 130.815 70.3163 131.876 70.2605C132.937 70.1488 134.054 70.0929 135.17 69.9812C135.729 69.9254 136.287 69.9254 136.846 69.9254C137.348 69.9254 137.851 69.9254 138.354 69.8696C138.8 70.5397 139.191 70.7072 139.08 70.8747Z" fill="#FFF29C"/>
</svg>
