<svg width="295" height="253" viewBox="0 0 295 253" fill="none" xmlns="http://www.w3.org/2000/svg">
<path d="M106.28 49.3118L140.328 23.1052L125.926 63.5854L124.947 66.3358L127.866 66.255L170.815 65.0665L135.37 89.3501L132.961 91L135.37 92.6499L170.815 116.934L127.866 115.745L124.947 115.664L125.926 118.415L140.328 158.895L106.28 132.688L103.967 130.908L103.142 133.708L91 174.923L78.8582 133.708L78.0332 130.908L75.7198 132.688L41.6715 158.895L56.074 118.415L57.0526 115.664L54.1344 115.745L11.1848 116.934L46.6304 92.6499L49.0387 91L46.6304 89.3501L11.1848 65.0665L54.1344 66.255L57.0526 66.3358L56.074 63.5854L41.6715 23.1052L75.7198 49.3118L78.0332 51.0924L78.8582 48.2921L91 7.07737L103.142 48.2921L103.967 51.0924L106.28 49.3118Z" stroke="#FB3038" stroke-width="4"/>
<circle cx="217" cy="45" r="4" stroke="#FF814C" stroke-width="4"/>
<circle cx="267.5" cy="108.5" r="2.5" stroke="#5C72E1" stroke-width="4"/>
<rect x="195.083" y="156.828" width="6" height="64" rx="3" transform="rotate(45 195.083 156.828)" stroke="#F37DC0" stroke-width="4"/>
<circle cx="283.5" cy="186.5" r="9.5" stroke="#FDD20D" stroke-width="4"/>
<circle cx="91" cy="246" r="5" stroke="white" stroke-width="4"/>
</svg>
