<svg width="133" height="196" viewBox="0 0 133 196" fill="none" xmlns="http://www.w3.org/2000/svg">
<ellipse cx="84.2996" cy="46.1262" rx="84.2996" ry="46.1262" transform="matrix(-0.636404 -0.771356 -0.771356 0.636404 178.457 136.412)" fill="#FF814C"/>
<path d="M46.3959 30.8976C37.3975 38.3217 34.4307 52.0074 37.6421 68.7812C40.8375 85.472 50.0916 104.714 64.7347 122.462C79.3777 140.21 96.511 152.951 112.291 159.259C128.149 165.599 142.149 165.286 151.147 157.862C160.146 150.438 163.113 136.752 159.901 119.979C156.706 103.288 147.452 84.046 132.809 66.2978C118.166 48.5497 101.032 35.8085 85.2527 29.5003C69.3944 23.1608 55.3943 23.4735 46.3959 30.8976Z" fill="#182E76" stroke="white" stroke-width="4"/>
</svg>
