<svg width="82" height="65" viewBox="0 0 82 65" fill="none" xmlns="http://www.w3.org/2000/svg">
<path fill-rule="evenodd" clip-rule="evenodd" d="M40.0149 1.60547C33.7007 1.60547 28.5821 6.72145 28.5821 13.0322C28.5821 19.3431 33.7007 24.459 40.0149 24.459C46.3294 24.459 51.4478 19.3431 51.4478 13.0322C51.4478 6.72145 46.3294 1.60547 40.0149 1.60547ZM17.6612 23.8355C29.5621 23.8355 39.2096 33.478 39.2096 45.3725V63.0247H28.4914V45.3725C28.4914 44.1056 28.2738 42.89 27.8737 41.7602L12.13 57.4956L4.55105 49.9204L19.7336 34.7461C19.0628 34.6162 18.3699 34.5481 17.6612 34.5481H0V23.8355H17.6612ZM62.6355 23.8355C50.7346 23.8355 41.0868 33.478 41.0868 45.3725V63.0247H51.805V45.3725C51.805 44.3805 51.9387 43.4192 52.1888 42.5065L68.6578 58.9668L76.237 51.3916L59.768 34.9316C60.6812 34.6816 61.643 34.5481 62.6355 34.5481H80.2964V23.8355H62.6355Z" fill="#FF814C"/>
</svg>
